<svg width="15" height="17" viewBox="0 0 15 17" fill="none" xmlns="http://www.w3.org/2000/svg">
<path d="M5.79688 0.5H8.54688C8.94792 0.5 9.27734 0.628906 9.53516 0.886719C9.79297 1.14453 9.92188 1.47396 9.92188 1.875V2.5625H14.0469V3.9375H13.3594V14.9375C13.3594 15.5104 13.1589 15.9974 12.7578 16.3984C12.3568 16.7995 11.8698 17 11.2969 17H3.04688C2.47396 17 1.98698 16.7995 1.58594 16.3984C1.1849 15.9974 0.984375 15.5104 0.984375 14.9375V3.9375H0.296875V2.5625H4.42188V1.875C4.42188 1.47396 4.55078 1.14453 4.80859 0.886719C5.06641 0.628906 5.39583 0.5 5.79688 0.5ZM5.79688 1.875V2.5625H8.54688V1.875H5.79688ZM2.35938 3.9375V14.9375C2.35938 15.138 2.41667 15.3099 2.53125 15.4531C2.67448 15.5677 2.84635 15.625 3.04688 15.625H11.2969C11.4974 15.625 11.6549 15.5677 11.7695 15.4531C11.9128 15.3099 11.9844 15.138 11.9844 14.9375V3.9375H2.35938ZM3.73438 6H5.10938V13.5625H3.73438V6ZM6.48438 6H7.85938V13.5625H6.48438V6ZM9.23438 6H10.6094V13.5625H9.23438V6Z" fill="#FE4D5C"/>
</svg>
