<svg width="18" height="17" viewBox="0 0 18 17" fill="none" xmlns="http://www.w3.org/2000/svg">
<path d="M13.7266 1.10156C14.1276 0.700521 14.6146 0.5 15.1875 0.5C15.7604 0.5 16.2331 0.700521 16.6055 1.10156C17.0065 1.5026 17.207 1.98958 17.207 2.5625C17.207 3.13542 17.0208 3.6224 16.6484 4.02344L9.85938 10.8125L9.6875 10.9844H9.47266L7.06641 11.5L6.07812 11.6719L6.25 10.6836L6.76562 8.27734V8.0625L6.9375 7.89062L13.7266 1.10156ZM15.6602 2.08984C15.5169 1.94661 15.3594 1.875 15.1875 1.875C15.0156 1.875 14.8581 1.94661 14.7148 2.08984L8.05469 8.75L7.79688 9.95312L9 9.69531L15.6602 3.03516C15.9753 2.72005 15.9753 2.40495 15.6602 2.08984ZM0.75 3.25H9.81641L8.44141 4.625H2.125V15.625H13.125V9.30859L14.5 7.93359V17H0.75V3.25Z" fill="#FFAB2B"/>
</svg>
